<svg xmlns="http://www.w3.org/2000/svg" viewBox="0 0 720 396" font-family="Inter, Arial, sans-serif">
  <rect width="720" height="396" fill="#ffffff"/>
  <text x="210" y="28" font-size="16" fill="#111827" font-weight="700">Name-collision burden by name-origin stratum</text>
  <text x="210" y="46" font-size="12" fill="#6b7280">Distinct OpenAlex author identities sharing one printed name (log scale). ORCID-bearing authors, OpenAlex 2026-06-11.</text>
  <line x1="210.0" y1="48" x2="210.0" y2="348" stroke="#e5e7eb" stroke-width="1"/><text x="210.0" y="366" font-size="12" fill="#6b7280" text-anchor="middle">1</text><line x1="321.9" y1="48" x2="321.9" y2="348" stroke="#e5e7eb" stroke-width="1"/><text x="321.9" y="366" font-size="12" fill="#6b7280" text-anchor="middle">10</text><line x1="433.8" y1="48" x2="433.8" y2="348" stroke="#e5e7eb" stroke-width="1"/><text x="433.8" y="366" font-size="12" fill="#6b7280" text-anchor="middle">100</text><line x1="545.7" y1="48" x2="545.7" y2="348" stroke="#e5e7eb" stroke-width="1"/><text x="545.7" y="366" font-size="12" fill="#6b7280" text-anchor="middle">1,000</text><line x1="657.7" y1="48" x2="657.7" y2="348" stroke="#e5e7eb" stroke-width="1"/><text x="657.7" y="366" font-size="12" fill="#6b7280" text-anchor="middle">10,000</text>
  <line x1="210.0" y1="94" x2="586.9" y2="94" stroke="#475569" stroke-width="1.5"/><line x1="210.0" y1="86" x2="210.0" y2="102" stroke="#475569" stroke-width="1.5"/><line x1="586.9" y1="86" x2="586.9" y2="102" stroke="#475569" stroke-width="1.5"/><rect x="277.4" y="78" width="189.4" height="32" fill="#93c5fd" fill-opacity="0.55" stroke="#2563eb" stroke-width="1.5"/><line x1="334.7" y1="78" x2="334.7" y2="110" stroke="#1e3a8a" stroke-width="2.5"/><circle cx="680.0" cy="94" r="3" fill="#dc2626"/><text x="196" y="90" font-size="13" fill="#111827" text-anchor="end" font-weight="600">East Asian</text><text x="196" y="107" font-size="11" fill="#6b7280" text-anchor="end">n=130 · median 13 · max 15,833</text><text x="204.0" y="98" font-size="10" fill="#94a3b8" text-anchor="end">1</text><line x1="210.0" y1="186" x2="386.8" y2="186" stroke="#475569" stroke-width="1.5"/><line x1="210.0" y1="178" x2="210.0" y2="194" stroke="#475569" stroke-width="1.5"/><line x1="386.8" y1="178" x2="386.8" y2="194" stroke="#475569" stroke-width="1.5"/><rect x="210.0" y="170" width="111.9" height="32" fill="#93c5fd" fill-opacity="0.55" stroke="#2563eb" stroke-width="1.5"/><line x1="243.7" y1="170" x2="243.7" y2="202" stroke="#1e3a8a" stroke-width="2.5"/><circle cx="617.4" cy="186" r="3" fill="#dc2626"/><text x="196" y="182" font-size="13" fill="#111827" text-anchor="end" font-weight="600">Anglophone</text><text x="196" y="199" font-size="11" fill="#6b7280" text-anchor="end">n=130 · median 2 · max 4,369</text><text x="204.0" y="190" font-size="10" fill="#94a3b8" text-anchor="end">1</text><line x1="210.0" y1="278" x2="341.6" y2="278" stroke="#475569" stroke-width="1.5"/><line x1="210.0" y1="270" x2="210.0" y2="286" stroke="#475569" stroke-width="1.5"/><line x1="341.6" y1="270" x2="341.6" y2="286" stroke="#475569" stroke-width="1.5"/><rect x="210.0" y="262" width="67.4" height="32" fill="#93c5fd" fill-opacity="0.55" stroke="#2563eb" stroke-width="1.5"/><line x1="243.7" y1="262" x2="243.7" y2="294" stroke="#1e3a8a" stroke-width="2.5"/><circle cx="617.4" cy="278" r="3" fill="#dc2626"/><text x="196" y="274" font-size="13" fill="#111827" text-anchor="end" font-weight="600">Other European</text><text x="196" y="291" font-size="11" fill="#6b7280" text-anchor="end">n=130 · median 2 · max 4,369</text><text x="204.0" y="282" font-size="10" fill="#94a3b8" text-anchor="end">1</text>
  <text x="445" y="388" font-size="12" fill="#374151" text-anchor="middle">distinct namesakes conflated by name-string attribution (1 = unambiguous; box = IQR, whisker = p10–p90, ● = max)</text>
</svg>